<svg width="124" height="25" viewBox="0 0 124 25" fill="none" xmlns="http://www.w3.org/2000/svg">
<path d="M120.118 24L119.336 20.532H114.882L115.63 16.996H118.384L114.678 0.200012H118.282L123.756 24H120.118ZM108.728 24L113.216 4.00801H113.76L115.222 10.91L112.332 24H108.728Z" fill="white"/>
<path d="M93.9604 24V0.200012H106.336V3.80401H97.6324V10.366H103.14V14.004H97.6324V20.362H106.336V24H93.9604Z" fill="white"/>
<path d="M88.3212 24L87.8112 17.948C87.7432 17.0187 87.5958 16.2593 87.3692 15.67C87.1425 15.0807 86.7912 14.6387 86.3152 14.344C85.8618 14.0493 85.2158 13.902 84.3772 13.902H82.2012V10.638H84.2752C85.4538 10.638 86.3038 10.3207 86.8252 9.68601C87.3692 9.05135 87.6412 8.20135 87.6412 7.13601C87.6412 6.00268 87.3238 5.13001 86.6892 4.51801C86.0772 3.90601 85.1818 3.60001 84.0032 3.60001H82.2012V0.200012H84.4452C85.7825 0.222679 86.9498 0.483345 87.9472 0.982012C88.9445 1.48068 89.7152 2.21735 90.2592 3.19201C90.8258 4.14401 91.1092 5.34535 91.1092 6.79601C91.1092 8.11068 90.8938 9.22135 90.4632 10.128C90.0552 11.012 89.4998 11.7033 88.7972 12.202C89.4998 12.5873 90.0438 13.188 90.4292 14.004C90.8372 14.7973 91.0865 15.67 91.1772 16.622L91.7552 24H88.3212ZM76.7952 24V0.200012H80.4672V24H76.7952Z" fill="white"/>
<path d="M67.0714 24.17V20.498C67.4341 20.498 67.7968 20.4187 68.1594 20.26C68.5448 20.1014 68.8961 19.8747 69.2134 19.58C69.5534 19.2627 69.8254 18.9 70.0294 18.492C70.2334 18.0614 70.3354 17.5854 70.3354 17.064V7.17003C70.3354 6.73936 70.2561 6.32003 70.0974 5.91203C69.9614 5.50403 69.7461 5.13003 69.4514 4.79003C69.1794 4.45003 68.8394 4.17803 68.4314 3.97403C68.0461 3.77003 67.5928 3.66803 67.0714 3.66803V0.0300293C68.0914 0.0300293 69.0208 0.222696 69.8594 0.608029C70.6981 0.993363 71.4234 1.5147 72.0354 2.17203C72.6701 2.8067 73.1574 3.5207 73.4974 4.31403C73.8374 5.0847 74.0074 5.85536 74.0074 6.62603V17.166C74.0074 18.2314 73.8148 19.1947 73.4294 20.056C73.0441 20.9174 72.5228 21.654 71.8654 22.266C71.2308 22.878 70.4941 23.354 69.6554 23.694C68.8168 24.0114 67.9554 24.17 67.0714 24.17ZM65.2014 24.17C64.3854 24.17 63.5694 24.0114 62.7534 23.694C61.9601 23.354 61.2234 22.878 60.5434 22.266C59.8634 21.6314 59.3194 20.8834 58.9114 20.022C58.5034 19.1607 58.2994 18.2087 58.2994 17.166V6.62603C58.2994 5.8327 58.4694 5.0507 58.8094 4.28003C59.1494 3.4867 59.6254 2.7727 60.2374 2.13803C60.8721 1.50336 61.6088 0.993363 62.4474 0.608029C63.2861 0.222696 64.2154 0.0300293 65.2354 0.0300293V3.66803C64.7141 3.66803 64.2494 3.77003 63.8414 3.97403C63.4561 4.17803 63.1161 4.46136 62.8214 4.82403C62.5494 5.16403 62.3341 5.53803 62.1754 5.94603C62.0394 6.35403 61.9714 6.76203 61.9714 7.17003V17.064C61.9714 17.5854 62.0734 18.0614 62.2774 18.492C62.4814 18.9227 62.7421 19.2854 63.0594 19.58C63.3768 19.8747 63.7168 20.1014 64.0794 20.26C64.4648 20.4187 64.8388 20.498 65.2014 20.498V24.17Z" fill="white"/>
<path d="M47.1876 24V3.77001H41.6796V0.200012H56.4016V3.77001H50.8596V24H47.1876Z" fill="white"/>
<path d="M32.8058 24.17V20.498C33.1685 20.498 33.5311 20.4187 33.8938 20.26C34.2791 20.1014 34.6305 19.8747 34.9478 19.58C35.2878 19.2627 35.5598 18.9 35.7638 18.492C35.9678 18.0614 36.0698 17.5854 36.0698 17.064V7.17003C36.0698 6.73936 35.9905 6.32003 35.8318 5.91203C35.6958 5.50403 35.4805 5.13003 35.1858 4.79003C34.9138 4.45003 34.5738 4.17803 34.1658 3.97403C33.7805 3.77003 33.3271 3.66803 32.8058 3.66803V0.0300293C33.8258 0.0300293 34.7551 0.222696 35.5938 0.608029C36.4325 0.993363 37.1578 1.5147 37.7698 2.17203C38.4045 2.8067 38.8918 3.5207 39.2318 4.31403C39.5718 5.0847 39.7418 5.85536 39.7418 6.62603V17.166C39.7418 18.2314 39.5491 19.1947 39.1638 20.056C38.7785 20.9174 38.2571 21.654 37.5998 22.266C36.9651 22.878 36.2285 23.354 35.3898 23.694C34.5511 24.0114 33.6898 24.17 32.8058 24.17ZM30.9358 24.17C30.1198 24.17 29.3038 24.0114 28.4878 23.694C27.6945 23.354 26.9578 22.878 26.2778 22.266C25.5978 21.6314 25.0538 20.8834 24.6458 20.022C24.2378 19.1607 24.0338 18.2087 24.0338 17.166V6.62603C24.0338 5.8327 24.2038 5.0507 24.5438 4.28003C24.8838 3.4867 25.3598 2.7727 25.9718 2.13803C26.6065 1.50336 27.3431 0.993363 28.1818 0.608029C29.0205 0.222696 29.9498 0.0300293 30.9698 0.0300293V3.66803C30.4485 3.66803 29.9838 3.77003 29.5758 3.97403C29.1905 4.17803 28.8505 4.46136 28.5558 4.82403C28.2838 5.16403 28.0685 5.53803 27.9098 5.94603C27.7738 6.35403 27.7058 6.76203 27.7058 7.17003V17.064C27.7058 17.5854 27.8078 18.0614 28.0118 18.492C28.2158 18.9227 28.4765 19.2854 28.7938 19.58C29.1111 19.8747 29.4511 20.1014 29.8138 20.26C30.1991 20.4187 30.5731 20.498 30.9358 20.498V24.17Z" fill="white"/>
<path d="M9.36998 24L0.427979 2.54601V0.200012H3.35198L10.662 17.948L15.49 7.03401H15.83V15.296L11.988 24H9.36998ZM0.427979 24V7.71401H0.733979L4.09998 15.806V24H0.427979ZM17.564 24V0.200012H21.236V24H17.564Z" fill="white"/>
</svg>
