<svg width="124" height="25" viewBox="0 0 124 25" fill="none" xmlns="http://www.w3.org/2000/svg">
<path d="M9.37 24L0.428 2.546V0.199998H3.352L10.662 17.948L15.49 7.034H15.83V15.296L11.988 24H9.37ZM0.428 24V7.714H0.734L4.1 15.806V24H0.428ZM17.564 24V0.199998H21.236V24H17.564ZM32.8058 24.17V20.498C33.1685 20.498 33.5312 20.4187 33.8938 20.26C34.2792 20.1013 34.6305 19.8747 34.9478 19.58C35.2878 19.2627 35.5598 18.9 35.7638 18.492C35.9678 18.0613 36.0698 17.5853 36.0698 17.064V7.17C36.0698 6.73933 35.9905 6.32 35.8318 5.912C35.6958 5.504 35.4805 5.13 35.1858 4.79C34.9138 4.45 34.5738 4.178 34.1658 3.974C33.7805 3.77 33.3272 3.668 32.8058 3.668V0.0299985C33.8258 0.0299985 34.7552 0.222665 35.5938 0.607999C36.4325 0.993333 37.1578 1.51467 37.7698 2.172C38.4045 2.80667 38.8918 3.52067 39.2318 4.314C39.5718 5.08467 39.7418 5.85533 39.7418 6.626V17.166C39.7418 18.2313 39.5492 19.1947 39.1638 20.056C38.7785 20.9173 38.2572 21.654 37.5998 22.266C36.9652 22.878 36.2285 23.354 35.3898 23.694C34.5512 24.0113 33.6898 24.17 32.8058 24.17ZM30.9358 24.17C30.1198 24.17 29.3038 24.0113 28.4878 23.694C27.6945 23.354 26.9578 22.878 26.2778 22.266C25.5978 21.6313 25.0538 20.8833 24.6458 20.022C24.2378 19.1607 24.0338 18.2087 24.0338 17.166V6.626C24.0338 5.83267 24.2038 5.05067 24.5438 4.28C24.8838 3.48667 25.3598 2.77267 25.9718 2.138C26.6065 1.50333 27.3432 0.993333 28.1818 0.607999C29.0205 0.222665 29.9498 0.0299985 30.9698 0.0299985V3.668C30.4485 3.668 29.9838 3.77 29.5758 3.974C29.1905 4.178 28.8505 4.46133 28.5558 4.824C28.2838 5.164 28.0685 5.538 27.9098 5.946C27.7738 6.354 27.7058 6.762 27.7058 7.17V17.064C27.7058 17.5853 27.8078 18.0613 28.0118 18.492C28.2158 18.9227 28.4765 19.2853 28.7938 19.58C29.1112 19.8747 29.4512 20.1013 29.8138 20.26C30.1992 20.4187 30.5732 20.498 30.9358 20.498V24.17ZM47.1876 24V3.77H41.6796V0.199998H56.4016V3.77H50.8596V24H47.1876ZM67.0715 24.17V20.498C67.4341 20.498 67.7968 20.4187 68.1595 20.26C68.5448 20.1013 68.8961 19.8747 69.2135 19.58C69.5535 19.2627 69.8255 18.9 70.0295 18.492C70.2335 18.0613 70.3355 17.5853 70.3355 17.064V7.17C70.3355 6.73933 70.2561 6.32 70.0975 5.912C69.9615 5.504 69.7461 5.13 69.4515 4.79C69.1795 4.45 68.8395 4.178 68.4315 3.974C68.0461 3.77 67.5928 3.668 67.0715 3.668V0.0299985C68.0915 0.0299985 69.0208 0.222665 69.8595 0.607999C70.6981 0.993333 71.4235 1.51467 72.0355 2.172C72.6701 2.80667 73.1575 3.52067 73.4975 4.314C73.8375 5.08467 74.0075 5.85533 74.0075 6.626V17.166C74.0075 18.2313 73.8148 19.1947 73.4295 20.056C73.0441 20.9173 72.5228 21.654 71.8655 22.266C71.2308 22.878 70.4941 23.354 69.6555 23.694C68.8168 24.0113 67.9555 24.17 67.0715 24.17ZM65.2015 24.17C64.3855 24.17 63.5695 24.0113 62.7535 23.694C61.9601 23.354 61.2235 22.878 60.5435 22.266C59.8635 21.6313 59.3195 20.8833 58.9115 20.022C58.5035 19.1607 58.2995 18.2087 58.2995 17.166V6.626C58.2995 5.83267 58.4695 5.05067 58.8095 4.28C59.1495 3.48667 59.6255 2.77267 60.2375 2.138C60.8721 1.50333 61.6088 0.993333 62.4475 0.607999C63.2861 0.222665 64.2155 0.0299985 65.2355 0.0299985V3.668C64.7141 3.668 64.2495 3.77 63.8415 3.974C63.4561 4.178 63.1161 4.46133 62.8215 4.824C62.5495 5.164 62.3341 5.538 62.1755 5.946C62.0395 6.354 61.9715 6.762 61.9715 7.17V17.064C61.9715 17.5853 62.0735 18.0613 62.2775 18.492C62.4815 18.9227 62.7421 19.2853 63.0595 19.58C63.3768 19.8747 63.7168 20.1013 64.0795 20.26C64.4648 20.4187 64.8388 20.498 65.2015 20.498V24.17ZM88.3212 24L87.8112 17.948C87.7432 17.0187 87.5959 16.2593 87.3692 15.67C87.1425 15.0807 86.7912 14.6387 86.3152 14.344C85.8619 14.0493 85.2159 13.902 84.3772 13.902H82.2012V10.638H84.2752C85.4539 10.638 86.3039 10.3207 86.8252 9.686C87.3692 9.05133 87.6412 8.20133 87.6412 7.136C87.6412 6.00267 87.3239 5.13 86.6892 4.518C86.0772 3.906 85.1819 3.6 84.0032 3.6H82.2012V0.199998H84.4452C85.7825 0.222665 86.9499 0.483331 87.9472 0.981998C88.9445 1.48067 89.7152 2.21733 90.2592 3.192C90.8259 4.144 91.1092 5.34533 91.1092 6.796C91.1092 8.11067 90.8939 9.22133 90.4632 10.128C90.0552 11.012 89.4999 11.7033 88.7972 12.202C89.4999 12.5873 90.0439 13.188 90.4292 14.004C90.8372 14.7973 91.0865 15.67 91.1772 16.622L91.7552 24H88.3212ZM76.7952 24V0.199998H80.4672V24H76.7952ZM93.9604 24V0.199998H106.336V3.804H97.6324V10.366H103.14V14.004H97.6324V20.362H106.336V24H93.9604ZM120.118 24L119.336 20.532H114.882L115.63 16.996H118.384L114.678 0.199998H118.282L123.756 24H120.118ZM108.728 24L113.216 4.008H113.76L115.222 10.91L112.332 24H108.728Z" fill="black"/>
</svg>
